<svg width="32" height="32" viewBox="0 0 32 32" fill="none" xmlns="http://www.w3.org/2000/svg" stroke-linecap="round" stroke-linejoin="round" role="img" aria-label="Organizar"><title>Organizar</title><path d="M7 4 H21 L25 8 V27 A1.5 1.5 0 0 1 23.5 28.5 H7 A1.5 1.5 0 0 1 5.5 27 V5.5 A1.5 1.5 0 0 1 7 4 Z" stroke="#212B37" stroke-width="1.5" fill="#FFFFFF"></path><path d="M21 4 V8 H25" stroke="#212B37" stroke-width="1.5"></path><path d="M8.5 13 H10.5 M8.5 14.5 H10.5" stroke="#212B37" stroke-width="1.5" opacity="0.55"></path><rect x="12" y="12.3" width="10" height="3" rx="0.6" stroke="#212B37" stroke-width="1.5" fill="#FFFFFF"></rect><path d="M8.5 18 H10.5 M8.5 19.5 H10.5" stroke="#212B37" stroke-width="1.5" opacity="0.55"></path><rect x="12" y="17.3" width="10" height="3" rx="0.6" stroke="#EF6337" stroke-width="2" fill="#EF6337"></rect><path d="M8.5 23 H10.5 M8.5 24.5 H10.5" stroke="#212B37" stroke-width="1.5" opacity="0.55"></path><rect x="12" y="22.3" width="10" height="3" rx="0.6" stroke="#212B37" stroke-width="1.5" fill="#FFFFFF"></rect></svg>